# Blender 4.1.1
# www.blender.org
mtllib easy_bowl.mtl
o Circle
v -0.000934 0.030149 -0.021248
v -0.006143 0.029694 -0.021248
v -0.011195 0.028340 -0.021248
v -0.015934 0.026130 -0.021248
v -0.020218 0.023131 -0.021248
v -0.023915 0.019433 -0.021248
v -0.026915 0.015149 -0.021248
v -0.029125 0.010410 -0.021248
v -0.030478 0.005359 -0.021248
v -0.030934 0.000149 -0.021248
v -0.030478 -0.005060 -0.021248
v -0.029125 -0.010111 -0.021248
v -0.026915 -0.014851 -0.021248
v -0.023915 -0.019134 -0.021248
v -0.020218 -0.022832 -0.021248
v -0.015934 -0.025831 -0.021248
v -0.011195 -0.028042 -0.021248
v -0.006143 -0.029395 -0.021248
v -0.000934 -0.029851 -0.021248
v 0.004276 -0.029395 -0.021248
v 0.009327 -0.028042 -0.021248
v 0.014066 -0.025831 -0.021248
v 0.018350 -0.022832 -0.021248
v 0.022047 -0.019134 -0.021248
v 0.025047 -0.014851 -0.021248
v 0.027257 -0.010111 -0.021248
v 0.028610 -0.005060 -0.021248
v 0.029066 0.000149 -0.021248
v 0.028610 0.005359 -0.021248
v 0.027257 0.010410 -0.021248
v 0.025047 0.015149 -0.021248
v 0.022047 0.019433 -0.021248
v 0.018350 0.023131 -0.021248
v 0.014066 0.026130 -0.021248
v 0.009327 0.028340 -0.021248
v 0.004276 0.029694 -0.021248
v -0.001005 0.030149 -0.014855
v -0.006214 0.029694 -0.014855
v -0.011266 0.028340 -0.014855
v -0.016005 0.026130 -0.014855
v -0.020289 0.023131 -0.014855
v -0.023986 0.019433 -0.014855
v -0.026986 0.015149 -0.014855
v -0.029196 0.010410 -0.014855
v -0.030549 0.005359 -0.014855
v -0.031005 0.000149 -0.014855
v -0.030549 -0.005060 -0.014855
v -0.029196 -0.010111 -0.014855
v -0.026986 -0.014851 -0.014855
v -0.023986 -0.019134 -0.014855
v -0.020289 -0.022832 -0.014855
v -0.016005 -0.025832 -0.014855
v -0.011266 -0.028042 -0.014855
v -0.006214 -0.029395 -0.014855
v -0.001005 -0.029851 -0.014855
v 0.004204 -0.029395 -0.014855
v 0.009256 -0.028042 -0.014855
v 0.013995 -0.025832 -0.014855
v 0.018279 -0.022832 -0.014855
v 0.021976 -0.019134 -0.014855
v 0.024976 -0.014851 -0.014855
v 0.027186 -0.010111 -0.014855
v 0.028539 -0.005060 -0.014855
v 0.028995 0.000149 -0.014855
v 0.028539 0.005359 -0.014855
v 0.027186 0.010410 -0.014855
v 0.024976 0.015149 -0.014855
v 0.021976 0.019433 -0.014855
v 0.018279 0.023131 -0.014855
v 0.013995 0.026130 -0.014855
v 0.009256 0.028340 -0.014855
v 0.004204 0.029694 -0.014855
v -0.001147 0.051473 0.036712
v -0.010464 0.050693 0.036712
v -0.019499 0.048378 0.036712
v -0.027976 0.044597 0.036712
v -0.035637 0.039465 0.036712
v -0.042251 0.033139 0.036712
v -0.047615 0.025811 0.036712
v -0.051568 0.017703 0.036712
v -0.053989 0.009061 0.036712
v -0.054804 0.000149 0.036712
v -0.053989 -0.008763 0.036712
v -0.051568 -0.017404 0.036712
v -0.047615 -0.025512 0.036712
v -0.042251 -0.032841 0.036712
v -0.035637 -0.039167 0.036712
v -0.027976 -0.044298 0.036712
v -0.019499 -0.048079 0.036712
v -0.010464 -0.050394 0.036712
v -0.001147 -0.051174 0.036712
v 0.008170 -0.050394 0.036712
v 0.017205 -0.048079 0.036712
v 0.025682 -0.044298 0.036712
v 0.033343 -0.039167 0.036712
v 0.039957 -0.032841 0.036712
v 0.045321 -0.025512 0.036712
v 0.049274 -0.017404 0.036712
v 0.051695 -0.008763 0.036712
v 0.052510 0.000149 0.036712
v 0.051695 0.009061 0.036712
v 0.049274 0.017703 0.036712
v 0.045321 0.025811 0.036712
v 0.039957 0.033139 0.036712
v 0.033343 0.039465 0.036712
v 0.025682 0.044597 0.036712
v 0.017205 0.048378 0.036712
v 0.008170 0.050693 0.036712
v -0.000936 0.027972 -0.018771
v -0.005767 0.027552 -0.018768
v -0.010453 0.026298 -0.018765
v -0.014850 0.024250 -0.018763
v -0.018825 0.021469 -0.018760
v -0.022256 0.018040 -0.018758
v -0.025040 0.014066 -0.018756
v -0.027091 0.009669 -0.018755
v -0.028348 0.004983 -0.018754
v -0.028771 0.000149 -0.018754
v -0.028348 -0.004684 -0.018754
v -0.027091 -0.009371 -0.018755
v -0.025040 -0.013767 -0.018756
v -0.022256 -0.017741 -0.018758
v -0.018825 -0.021170 -0.018760
v -0.014850 -0.023951 -0.018763
v -0.010453 -0.026000 -0.018765
v -0.005767 -0.027253 -0.018768
v -0.000936 -0.027674 -0.018771
v 0.003895 -0.027249 -0.018774
v 0.008579 -0.025992 -0.018777
v 0.012973 -0.023941 -0.018780
v 0.016944 -0.021158 -0.018782
v 0.020371 -0.017729 -0.018785
v 0.023151 -0.013757 -0.018786
v 0.025199 -0.009363 -0.018788
v 0.026453 -0.004680 -0.018788
v 0.026875 0.000149 -0.018789
v 0.026453 0.004979 -0.018788
v 0.025199 0.009661 -0.018788
v 0.023151 0.014056 -0.018786
v 0.020371 0.018028 -0.018785
v 0.016944 0.021457 -0.018782
v 0.012973 0.024239 -0.018780
v 0.008579 0.026290 -0.018777
v 0.003895 0.027547 -0.018774
v -0.001004 0.027231 -0.014023
v -0.005714 0.026820 -0.014016
v -0.010281 0.025597 -0.014004
v -0.014564 0.023599 -0.013990
v -0.018435 0.020890 -0.013974
v -0.021774 0.017550 -0.013957
v -0.024482 0.013683 -0.013942
v -0.026476 0.009406 -0.013930
v -0.027697 0.004849 -0.013922
v -0.028108 0.000149 -0.013920
v -0.027697 -0.004550 -0.013922
v -0.026476 -0.009107 -0.013930
v -0.024482 -0.013384 -0.013942
v -0.021774 -0.017251 -0.013957
v -0.018435 -0.020591 -0.013974
v -0.014564 -0.023301 -0.013990
v -0.010281 -0.025298 -0.014004
v -0.005714 -0.026521 -0.014016
v -0.001004 -0.026932 -0.014023
v 0.003706 -0.026519 -0.014025
v 0.008271 -0.025294 -0.014024
v 0.012553 -0.023295 -0.014018
v 0.016421 -0.020584 -0.014010
v 0.019758 -0.017245 -0.014000
v 0.022463 -0.013378 -0.013990
v 0.024456 -0.009103 -0.013982
v 0.025675 -0.004548 -0.013977
v 0.026086 0.000149 -0.013975
v 0.025675 0.004846 -0.013977
v 0.024456 0.009401 -0.013982
v 0.022463 0.013677 -0.013990
v 0.019758 0.017543 -0.014000
v 0.016421 0.020883 -0.014010
v 0.012553 0.023594 -0.014018
v 0.008271 0.025592 -0.014024
v 0.003706 0.026817 -0.014025
v -0.001147 0.048786 0.038313
v -0.010009 0.048047 0.038319
v -0.018602 0.045853 0.038332
v -0.026664 0.042270 0.038351
v -0.033951 0.037407 0.038374
v -0.040241 0.031412 0.038399
v -0.045343 0.024467 0.038421
v -0.049102 0.016783 0.038439
v -0.051404 0.008595 0.038451
v -0.052179 0.000149 0.038456
v -0.051404 -0.008296 0.038451
v -0.049102 -0.016485 0.038439
v -0.045343 -0.024168 0.038421
v -0.040241 -0.031113 0.038398
v -0.033951 -0.037108 0.038374
v -0.026664 -0.041971 0.038351
v -0.018602 -0.045554 0.038332
v -0.010009 -0.047749 0.038319
v -0.001147 -0.048487 0.038313
v 0.007715 -0.047747 0.038316
v 0.016308 -0.045552 0.038326
v 0.024369 -0.041968 0.038343
v 0.031654 -0.037104 0.038364
v 0.037943 -0.031109 0.038386
v 0.043044 -0.024165 0.038407
v 0.046802 -0.016482 0.038424
v 0.049103 -0.008295 0.038436
v 0.049878 0.000149 0.038440
v 0.049103 0.008593 0.038436
v 0.046802 0.016781 0.038424
v 0.043044 0.024463 0.038407
v 0.037943 0.031408 0.038386
v 0.031654 0.037403 0.038364
v 0.024369 0.042266 0.038343
v 0.016308 0.045850 0.038326
v 0.007715 0.048046 0.038316
vn -0.8191 0.5736 -0.0091
vn 0.5736 0.8191 0.0064
vn 0.2588 -0.9659 0.0029
vn -0.9063 0.4226 -0.0101
vn 0.4226 0.9063 0.0047
vn 0.4226 -0.9063 0.0047
vn -0.9659 0.2588 -0.0107
vn 0.2588 0.9659 0.0029
vn 0.5736 -0.8191 0.0064
vn -0.9961 0.0872 -0.0111
vn 0.0872 0.9962 0.0010
vn 0.7071 -0.7071 0.0079
vn -0.9961 -0.0872 -0.0111
vn 0.8191 -0.5736 0.0091
vn -0.9659 -0.2588 -0.0107
vn 0.9063 -0.4226 0.0101
vn -0.9063 -0.4226 -0.0101
vn 0.9659 -0.2588 0.0107
vn -0.8191 -0.5736 -0.0091
vn 0.9961 -0.0872 0.0111
vn -0.7071 -0.7071 -0.0079
vn -0.0872 0.9962 -0.0010
vn 0.9961 0.0872 0.0111
vn -0.5736 -0.8191 -0.0064
vn -0.2588 0.9659 -0.0029
vn 0.9659 0.2588 0.0107
vn -0.4226 -0.9063 -0.0047
vn -0.4226 0.9063 -0.0047
vn 0.9063 0.4226 0.0101
vn -0.2588 -0.9659 -0.0029
vn -0.5736 0.8191 -0.0064
vn 0.8191 0.5736 0.0091
vn -0.0872 -0.9962 -0.0010
vn -0.7071 0.7071 -0.0079
vn 0.7071 0.7071 0.0079
vn 0.0872 -0.9962 0.0010
vn -0.9050 -0.0815 -0.4175
vn 0.7428 -0.5350 -0.4025
vn -0.8770 -0.2417 -0.4153
vn 0.8234 -0.3950 -0.4075
vn -0.8218 -0.3942 -0.4113
vn 0.8787 -0.2422 -0.4113
vn -0.7416 -0.5342 -0.4059
vn 0.9069 -0.0816 -0.4133
vn -0.6389 -0.6573 -0.3997
vn -0.0783 0.9211 -0.3813
vn 0.9069 0.0816 -0.4133
vn -0.5173 -0.7600 -0.3935
vn -0.2328 0.8936 -0.3837
vn 0.8787 0.2422 -0.4113
vn -0.3805 -0.8395 -0.3879
vn -0.3805 0.8395 -0.3879
vn 0.8234 0.3950 -0.4075
vn -0.2328 -0.8936 -0.3837
vn -0.5173 0.7600 -0.3935
vn 0.7428 0.5350 -0.4024
vn -0.0783 -0.9211 -0.3813
vn -0.6389 0.6573 -0.3997
vn 0.6398 0.6582 -0.3967
vn 0.0784 -0.9213 -0.3810
vn -0.7416 0.5342 -0.4059
vn 0.5179 0.7608 -0.3911
vn 0.2329 -0.8941 -0.3826
vn -0.8218 0.3942 -0.4113
vn 0.3808 0.8401 -0.3862
vn 0.3808 -0.8401 -0.3862
vn -0.8770 0.2417 -0.4153
vn 0.2329 0.8941 -0.3826
vn 0.5179 -0.7608 -0.3911
vn -0.9050 0.0815 -0.4175
vn 0.0784 0.9213 -0.3810
vn 0.6398 -0.6582 -0.3967
vn -0.0000 -0.0000 -1.0000
vn 0.8110 -0.5683 -0.1394
vn -0.5665 -0.8085 -0.1594
vn -0.2560 0.9539 -0.1568
vn 0.8976 -0.4189 -0.1374
vn -0.4176 -0.8947 -0.1583
vn -0.4176 0.8947 -0.1583
vn 0.9569 -0.2566 -0.1360
vn -0.2560 -0.9539 -0.1568
vn -0.5665 0.8085 -0.1594
vn 0.9870 -0.0864 -0.1353
vn -0.0865 -0.9841 -0.1549
vn -0.6981 0.6978 -0.1602
vn 0.9870 0.0864 -0.1353
vn -0.8086 0.5660 -0.1607
vn 0.9569 0.2566 -0.1360
vn -0.8945 0.4170 -0.1610
vn 0.8976 0.4189 -0.1374
vn -0.9533 0.2554 -0.1612
vn 0.8109 0.5683 -0.1394
vn -0.9832 0.0860 -0.1612
vn 0.6997 0.7003 -0.1418
vn 0.0857 -0.9846 -0.1526
vn -0.9832 -0.0860 -0.1612
vn 0.5672 0.8108 -0.1444
vn 0.2554 -0.9551 -0.1500
vn -0.9533 -0.2554 -0.1612
vn 0.4176 0.8966 -0.1472
vn 0.4176 -0.8966 -0.1472
vn -0.8945 -0.4170 -0.1610
vn 0.2554 0.9551 -0.1500
vn 0.5672 -0.8108 -0.1444
vn -0.8086 -0.5660 -0.1607
vn 0.0857 0.9846 -0.1526
vn 0.6997 -0.7003 -0.1418
vn -0.6981 -0.6978 -0.1602
vn -0.0865 0.9841 -0.1549
vn 0.9057 0.0815 0.4160
vn -0.7433 0.5355 0.4010
vn 0.8776 0.2419 0.4139
vn -0.8239 0.3953 0.4060
vn 0.8224 0.3946 0.4099
vn -0.8794 0.2425 0.4098
vn 0.7420 0.5346 0.4045
vn -0.9076 0.0817 0.4118
vn 0.6393 0.6577 0.3983
vn 0.0784 -0.9216 0.3800
vn -0.9076 -0.0817 0.4118
vn 0.5176 0.7605 0.3921
vn 0.2329 -0.8941 0.3824
vn -0.8794 -0.2425 0.4098
vn 0.3807 0.8400 0.3866
vn 0.3807 -0.8400 0.3866
vn -0.8239 -0.3954 0.4060
vn 0.2329 0.8941 0.3824
vn 0.5176 -0.7605 0.3921
vn -0.7433 -0.5355 0.4010
vn 0.0784 0.9216 0.3800
vn 0.6393 -0.6577 0.3983
vn -0.6402 -0.6587 0.3953
vn -0.0783 0.9218 0.3797
vn 0.7420 -0.5346 0.4045
vn -0.5181 -0.7614 0.3897
vn -0.2329 0.8946 0.3813
vn 0.8224 -0.3946 0.4099
vn -0.3809 -0.8407 0.3848
vn -0.3809 0.8407 0.3848
vn 0.8776 -0.2419 0.4139
vn -0.2329 -0.8946 0.3813
vn -0.5181 0.7614 0.3897
vn 0.9057 -0.0815 0.4160
vn -0.0783 -0.9218 0.3797
vn -0.6402 0.6587 0.3953
vn 0.0006 -0.0001 1.0000
vn 0.0006 -0.0000 1.0000
vn 0.0005 -0.0001 1.0000
vn 0.0007 0.0001 1.0000
vn -0.0425 0.5123 0.8578
vn -0.1275 0.5008 0.8561
vn -0.2113 0.4769 0.8532
vn -0.2925 0.4394 0.8494
vn -0.3685 0.3876 0.8450
vn -0.4361 0.3211 0.8406
vn -0.4916 0.2411 0.8368
vn -0.5312 0.1497 0.8339
vn -0.5519 0.0508 0.8324
vn -0.5519 -0.0508 0.8324
vn -0.5312 -0.1497 0.8339
vn -0.4916 -0.2411 0.8368
vn -0.4361 -0.3211 0.8406
vn -0.3685 -0.3876 0.8450
vn -0.2925 -0.4394 0.8494
vn -0.2113 -0.4769 0.8532
vn -0.1275 -0.5008 0.8561
vn -0.0425 -0.5123 0.8578
vn 0.0427 -0.5118 0.8580
vn 0.1273 -0.4996 0.8569
vn 0.2106 -0.4749 0.8545
vn 0.2910 -0.4370 0.8511
vn 0.3662 -0.3850 0.8471
vn 0.4331 -0.3188 0.8431
vn 0.4879 -0.2392 0.8395
vn 0.5270 -0.1484 0.8368
vn 0.5473 -0.0503 0.8354
vn 0.5473 0.0503 0.8354
vn 0.5270 0.1484 0.8368
vn 0.4879 0.2391 0.8395
vn 0.4331 0.3188 0.8431
vn 0.3662 0.3850 0.8471
vn 0.2910 0.4370 0.8511
vn 0.2106 0.4749 0.8545
vn 0.1273 0.4996 0.8569
vn 0.0427 0.5118 0.8580
vt 0.000000 0.000000
s 0
f 6/1/1 7/1/1 43/1/1 42/1/1
f 33/1/2 34/1/2 70/1/2 69/1/2
f 20/1/3 21/1/3 57/1/3 56/1/3
f 7/1/4 8/1/4 44/1/4 43/1/4
f 34/1/5 35/1/5 71/1/5 70/1/5
f 21/1/6 22/1/6 58/1/6 57/1/6
f 8/1/7 9/1/7 45/1/7 44/1/7
f 35/1/8 36/1/8 72/1/8 71/1/8
f 22/1/9 23/1/9 59/1/9 58/1/9
f 9/1/10 10/1/10 46/1/10 45/1/10
f 36/1/11 1/1/11 37/1/11 72/1/11
f 23/1/12 24/1/12 60/1/12 59/1/12
f 10/1/13 11/1/13 47/1/13 46/1/13
f 24/1/14 25/1/14 61/1/14 60/1/14
f 11/1/15 12/1/15 48/1/15 47/1/15
f 25/1/16 26/1/16 62/1/16 61/1/16
f 12/1/17 13/1/17 49/1/17 48/1/17
f 26/1/18 27/1/18 63/1/18 62/1/18
f 13/1/19 14/1/19 50/1/19 49/1/19
f 27/1/20 28/1/20 64/1/20 63/1/20
f 14/1/21 15/1/21 51/1/21 50/1/21
f 1/1/22 2/1/22 38/1/22 37/1/22
f 28/1/23 29/1/23 65/1/23 64/1/23
f 15/1/24 16/1/24 52/1/24 51/1/24
f 2/1/25 3/1/25 39/1/25 38/1/25
f 29/1/26 30/1/26 66/1/26 65/1/26
f 16/1/27 17/1/27 53/1/27 52/1/27
f 3/1/28 4/1/28 40/1/28 39/1/28
f 30/1/29 31/1/29 67/1/29 66/1/29
f 17/1/30 18/1/30 54/1/30 53/1/30
f 4/1/31 5/1/31 41/1/31 40/1/31
f 31/1/32 32/1/32 68/1/32 67/1/32
f 18/1/33 19/1/33 55/1/33 54/1/33
f 5/1/34 6/1/34 42/1/34 41/1/34
f 32/1/35 33/1/35 69/1/35 68/1/35
f 19/1/36 20/1/36 56/1/36 55/1/36
f 46/1/37 47/1/37 83/1/37 82/1/37
f 60/1/38 61/1/38 97/1/38 96/1/38
f 47/1/39 48/1/39 84/1/39 83/1/39
f 61/1/40 62/1/40 98/1/40 97/1/40
f 48/1/41 49/1/41 85/1/41 84/1/41
f 62/1/42 63/1/42 99/1/42 98/1/42
f 49/1/43 50/1/43 86/1/43 85/1/43
f 63/1/44 64/1/44 100/1/44 99/1/44
f 50/1/45 51/1/45 87/1/45 86/1/45
f 37/1/46 38/1/46 74/1/46 73/1/46
f 64/1/47 65/1/47 101/1/47 100/1/47
f 51/1/48 52/1/48 88/1/48 87/1/48
f 38/1/49 39/1/49 75/1/49 74/1/49
f 65/1/50 66/1/50 102/1/50 101/1/50
f 52/1/51 53/1/51 89/1/51 88/1/51
f 39/1/52 40/1/52 76/1/52 75/1/52
f 66/1/53 67/1/53 103/1/53 102/1/53
f 53/1/54 54/1/54 90/1/54 89/1/54
f 40/1/55 41/1/55 77/1/55 76/1/55
f 67/1/56 68/1/56 104/1/56 103/1/56
f 54/1/57 55/1/57 91/1/57 90/1/57
f 41/1/58 42/1/58 78/1/58 77/1/58
f 68/1/59 69/1/59 105/1/59 104/1/59
f 55/1/60 56/1/60 92/1/60 91/1/60
f 42/1/61 43/1/61 79/1/61 78/1/61
f 69/1/62 70/1/62 106/1/62 105/1/62
f 56/1/63 57/1/63 93/1/63 92/1/63
f 43/1/64 44/1/64 80/1/64 79/1/64
f 70/1/65 71/1/65 107/1/65 106/1/65
f 57/1/66 58/1/66 94/1/66 93/1/66
f 44/1/67 45/1/67 81/1/67 80/1/67
f 71/1/68 72/1/68 108/1/68 107/1/68
f 58/1/69 59/1/69 95/1/69 94/1/69
f 45/1/70 46/1/70 82/1/70 81/1/70
f 72/1/71 37/1/71 73/1/71 108/1/71
f 59/1/72 60/1/72 96/1/72 95/1/72
f 36/1/73 2/1/73 1/1/73
f 35/1/73 34/1/73 36/1/73
f 14/1/73 22/1/73 16/1/73
f 34/1/73 2/1/73 36/1/73
f 34/1/73 4/1/73 3/1/73
f 33/1/73 32/1/73 34/1/73
f 34/1/73 3/1/73 2/1/73
f 32/1/73 31/1/73 5/1/73
f 32/1/73 4/1/73 34/1/73
f 31/1/73 7/1/73 6/1/73
f 30/1/73 7/1/73 31/1/73
f 30/1/73 8/1/73 7/1/73
f 29/1/73 8/1/73 30/1/73
f 29/1/73 9/1/73 8/1/73
f 28/1/73 9/1/73 29/1/73
f 28/1/73 10/1/73 9/1/73
f 27/1/73 10/1/73 28/1/73
f 27/1/73 11/1/73 10/1/73
f 26/1/73 11/1/73 27/1/73
f 26/1/73 12/1/73 11/1/73
f 25/1/73 12/1/73 26/1/73
f 25/1/73 13/1/73 12/1/73
f 24/1/73 13/1/73 25/1/73
f 24/1/73 14/1/73 13/1/73
f 23/1/73 14/1/73 24/1/73
f 23/1/73 22/1/73 14/1/73
f 31/1/73 6/1/73 5/1/73
f 15/1/73 14/1/73 16/1/73
f 21/1/73 16/1/73 22/1/73
f 21/1/73 17/1/73 16/1/73
f 20/1/73 17/1/73 21/1/73
f 20/1/73 18/1/73 17/1/73
f 19/1/73 18/1/73 20/1/73
f 32/1/73 5/1/73 4/1/73
f 114/1/74 150/1/74 151/1/74 115/1/74
f 141/1/75 177/1/75 178/1/75 142/1/75
f 128/1/76 164/1/76 165/1/76 129/1/76
f 115/1/77 151/1/77 152/1/77 116/1/77
f 142/1/78 178/1/78 179/1/78 143/1/78
f 129/1/79 165/1/79 166/1/79 130/1/79
f 116/1/80 152/1/80 153/1/80 117/1/80
f 143/1/81 179/1/81 180/1/81 144/1/81
f 130/1/82 166/1/82 167/1/82 131/1/82
f 117/1/83 153/1/83 154/1/83 118/1/83
f 144/1/84 180/1/84 145/1/84 109/1/84
f 131/1/85 167/1/85 168/1/85 132/1/85
f 118/1/86 154/1/86 155/1/86 119/1/86
f 132/1/87 168/1/87 169/1/87 133/1/87
f 119/1/88 155/1/88 156/1/88 120/1/88
f 133/1/89 169/1/89 170/1/89 134/1/89
f 120/1/90 156/1/90 157/1/90 121/1/90
f 134/1/91 170/1/91 171/1/91 135/1/91
f 121/1/92 157/1/92 158/1/92 122/1/92
f 135/1/93 171/1/93 172/1/93 136/1/93
f 122/1/94 158/1/94 159/1/94 123/1/94
f 109/1/95 145/1/95 146/1/95 110/1/95
f 136/1/96 172/1/96 173/1/96 137/1/96
f 123/1/97 159/1/97 160/1/97 124/1/97
f 110/1/98 146/1/98 147/1/98 111/1/98
f 137/1/99 173/1/99 174/1/99 138/1/99
f 124/1/100 160/1/100 161/1/100 125/1/100
f 111/1/101 147/1/101 148/1/101 112/1/101
f 138/1/102 174/1/102 175/1/102 139/1/102
f 125/1/103 161/1/103 162/1/103 126/1/103
f 112/1/104 148/1/104 149/1/104 113/1/104
f 139/1/105 175/1/105 176/1/105 140/1/105
f 126/1/106 162/1/106 163/1/106 127/1/106
f 113/1/107 149/1/107 150/1/107 114/1/107
f 140/1/108 176/1/108 177/1/108 141/1/108
f 127/1/109 163/1/109 164/1/109 128/1/109
f 154/1/110 190/1/110 191/1/110 155/1/110
f 168/1/111 204/1/111 205/1/111 169/1/111
f 155/1/112 191/1/112 192/1/112 156/1/112
f 169/1/113 205/1/113 206/1/113 170/1/113
f 156/1/114 192/1/114 193/1/114 157/1/114
f 170/1/115 206/1/115 207/1/115 171/1/115
f 157/1/116 193/1/116 194/1/116 158/1/116
f 171/1/117 207/1/117 208/1/117 172/1/117
f 158/1/118 194/1/118 195/1/118 159/1/118
f 145/1/119 181/1/119 182/1/119 146/1/119
f 172/1/120 208/1/120 209/1/120 173/1/120
f 159/1/121 195/1/121 196/1/121 160/1/121
f 146/1/122 182/1/122 183/1/122 147/1/122
f 173/1/123 209/1/123 210/1/123 174/1/123
f 160/1/124 196/1/124 197/1/124 161/1/124
f 147/1/125 183/1/125 184/1/125 148/1/125
f 174/1/126 210/1/126 211/1/126 175/1/126
f 161/1/127 197/1/127 198/1/127 162/1/127
f 148/1/128 184/1/128 185/1/128 149/1/128
f 175/1/129 211/1/129 212/1/129 176/1/129
f 162/1/130 198/1/130 199/1/130 163/1/130
f 149/1/131 185/1/131 186/1/131 150/1/131
f 176/1/132 212/1/132 213/1/132 177/1/132
f 163/1/133 199/1/133 200/1/133 164/1/133
f 150/1/134 186/1/134 187/1/134 151/1/134
f 177/1/135 213/1/135 214/1/135 178/1/135
f 164/1/136 200/1/136 201/1/136 165/1/136
f 151/1/137 187/1/137 188/1/137 152/1/137
f 178/1/138 214/1/138 215/1/138 179/1/138
f 165/1/139 201/1/139 202/1/139 166/1/139
f 152/1/140 188/1/140 189/1/140 153/1/140
f 179/1/141 215/1/141 216/1/141 180/1/141
f 166/1/142 202/1/142 203/1/142 167/1/142
f 153/1/143 189/1/143 190/1/143 154/1/143
f 180/1/144 216/1/144 181/1/144 145/1/144
f 167/1/145 203/1/145 204/1/145 168/1/145
f 144/1/146 109/1/146 110/1/146
f 143/1/146 144/1/146 142/1/146
f 122/1/147 124/1/147 130/1/147
f 142/1/147 144/1/147 110/1/147
f 142/1/147 111/1/147 112/1/147
f 141/1/148 142/1/148 140/1/148
f 142/1/147 110/1/147 111/1/147
f 140/1/147 113/1/147 139/1/147
f 140/1/147 142/1/147 112/1/147
f 139/1/147 114/1/147 115/1/147
f 138/1/147 139/1/147 115/1/147
f 138/1/147 115/1/147 116/1/147
f 137/1/147 138/1/147 116/1/147
f 137/1/147 116/1/147 117/1/147
f 136/1/147 137/1/147 117/1/147
f 136/1/147 117/1/147 118/1/147
f 135/1/147 136/1/147 118/1/147
f 135/1/147 118/1/147 119/1/147
f 134/1/147 135/1/147 119/1/147
f 134/1/147 119/1/147 120/1/147
f 133/1/147 134/1/147 120/1/147
f 133/1/147 120/1/147 121/1/147
f 132/1/147 133/1/147 121/1/147
f 132/1/147 121/1/147 122/1/147
f 131/1/147 132/1/147 122/1/147
f 131/1/147 122/1/147 130/1/147
f 139/1/147 113/1/147 114/1/147
f 123/1/149 124/1/149 122/1/149
f 129/1/147 130/1/147 124/1/147
f 129/1/147 124/1/147 125/1/147
f 128/1/147 129/1/147 125/1/147
f 128/1/147 125/1/147 126/1/147
f 127/1/147 128/1/147 126/1/147
f 140/1/147 112/1/147 113/1/147
f 73/1/150 74/1/150 182/1/150 181/1/150
f 74/1/151 75/1/151 183/1/151 182/1/151
f 75/1/152 76/1/152 184/1/152 183/1/152
f 76/1/153 77/1/153 185/1/153 184/1/153
f 77/1/154 78/1/154 186/1/154 185/1/154
f 78/1/155 79/1/155 187/1/155 186/1/155
f 79/1/156 80/1/156 188/1/156 187/1/156
f 80/1/157 81/1/157 189/1/157 188/1/157
f 81/1/158 82/1/158 190/1/158 189/1/158
f 82/1/159 83/1/159 191/1/159 190/1/159
f 83/1/160 84/1/160 192/1/160 191/1/160
f 84/1/161 85/1/161 193/1/161 192/1/161
f 85/1/162 86/1/162 194/1/162 193/1/162
f 86/1/163 87/1/163 195/1/163 194/1/163
f 87/1/164 88/1/164 196/1/164 195/1/164
f 88/1/165 89/1/165 197/1/165 196/1/165
f 89/1/166 90/1/166 198/1/166 197/1/166
f 90/1/167 91/1/167 199/1/167 198/1/167
f 91/1/168 92/1/168 200/1/168 199/1/168
f 92/1/169 93/1/169 201/1/169 200/1/169
f 93/1/170 94/1/170 202/1/170 201/1/170
f 94/1/171 95/1/171 203/1/171 202/1/171
f 95/1/172 96/1/172 204/1/172 203/1/172
f 96/1/173 97/1/173 205/1/173 204/1/173
f 97/1/174 98/1/174 206/1/174 205/1/174
f 98/1/175 99/1/175 207/1/175 206/1/175
f 99/1/176 100/1/176 208/1/176 207/1/176
f 100/1/177 101/1/177 209/1/177 208/1/177
f 101/1/178 102/1/178 210/1/178 209/1/178
f 102/1/179 103/1/179 211/1/179 210/1/179
f 103/1/180 104/1/180 212/1/180 211/1/180
f 104/1/181 105/1/181 213/1/181 212/1/181
f 105/1/182 106/1/182 214/1/182 213/1/182
f 106/1/183 107/1/183 215/1/183 214/1/183
f 107/1/184 108/1/184 216/1/184 215/1/184
f 108/1/185 73/1/185 181/1/185 216/1/185
